# ProBuilder 4.0.5
# https://unity3d.com/unity/features/worldbuilding/probuilder
# 17/02/2020 19:40:18

mtllib ./PlatformSmall.mtl
o PlatformSmall

g PlatformSmall
v 0 -0.1 -2.5
v 0 0.1 -2.5
v -0.7725428 -0.1 -2.377641
v -0.7725428 0.1 -2.377641
v -1.469463 -0.1 -2.022543
v -1.469463 0.1 -2.022543
v -2.022542 -0.1 -1.469463
v -2.022542 0.1 -1.469463
v 0 -0.1 0
v 0 0.1 0

vt -0.3910863 -0.1
vt -0.3910863 0.1
vt 0.3910864 -0.1
vt 0.3910864 0.1
vt 0 -2.5
vt 0 0
vt -0.7725428 -2.377641
vt 0.7725428 -2.377641
vt -1.469463 -2.022543
vt 1.469463 -2.022543
vt -2.022542 -1.469463
vt 2.022542 -1.469463
vt 2.5 0.1
vt 0 0.1
vt 2.5 -0.1
vt 0 -0.1
vt -2.5 0.1
vt -2.5 -0.1

vn -0.1564345 0 -0.9876884
vn -0.3090171 0 -0.9510565
vn -0.5877852 0 -0.8090171
vn -0.7071066 0 -0.707107
vn 0 -1 0
vn 0 1 0
vn 1 0 0
vn -0.5877853 0 0.809017

g PlatformSmall
usemtl ProBuilderDefault
f 1/5/5 9/6/5 3/7/5
f 3/7/5 9/6/5 5/9/5
f 5/9/5 9/6/5 7/11/5
f 4/8/6 10/6/6 2/5/6
f 6/10/6 10/6/6 4/8/6
f 8/12/6 10/6/6 6/10/6
f 4/4/2 2/2/1 1/1/1
f 1/1/1 3/3/2 4/4/2
f 6/4/3 4/2/2 3/1/2
f 3/1/2 5/3/3 6/4/3
f 8/4/4 6/2/3 5/1/3
f 5/1/3 7/3/4 8/4/4
f 1/15/7 2/13/7 10/14/7
f 10/14/7 9/16/7 1/15/7
f 9/16/8 10/14/8 8/17/8
f 8/17/8 7/18/8 9/16/8

