# ProBuilder 4.0.5
# https://unity3d.com/unity/features/worldbuilding/probuilder
# 17/02/2020 19:40:02

mtllib ./PlatformLarge.mtl
o PlatformLarge

g PlatformLarge
v 0 -0.1 -2.5
v 0 0.1 -2.5
v -0.7725428 -0.1 -2.377641
v -0.7725428 0.1 -2.377641
v -1.469463 -0.1 -2.022543
v -1.469463 0.1 -2.022543
v -2.022542 -0.1 -1.469463
v -2.022542 0.1 -1.469463
v -2.377641 -0.1 -0.7725424
v -2.377641 0.1 -0.7725424
v -2.5 -0.1 0
v -2.5 0.1 0
v 0 -0.1 0
v 0 0.1 0

vt -0.3910863 -0.1
vt -0.3910863 0.1
vt 0.3910864 -0.1
vt 0.3910864 0.1
vt 0 -2.5
vt 0 0
vt -0.7725428 -2.377641
vt 0.7725428 -2.377641
vt -1.469463 -2.022543
vt 1.469463 -2.022543
vt -2.022542 -1.469463
vt 2.022542 -1.469463
vt -2.377641 -0.7725424
vt 2.377641 -0.7725424
vt -2.5 0
vt 2.5 0
vt 0 0.1
vt -2.5 0.1
vt 0 -0.1
vt -2.5 -0.1
vt 2.5 0.1
vt 2.5 -0.1

vn -0.1564345 0 -0.9876884
vn -0.3090171 0 -0.9510565
vn -0.5877852 0 -0.8090171
vn -0.8090169 0 -0.5877854
vn -0.9510565 0 -0.3090169
vn -0.9876884 0 -0.1564343
vn 0 -1 0
vn 0 1 0
vn 0 0 1
vn 1 0 0

g PlatformLarge
usemtl ProBuilderDefault
f 1/5/7 13/6/7 3/7/7
f 3/7/7 13/6/7 5/9/7
f 5/9/7 13/6/7 7/11/7
f 7/11/7 13/6/7 9/13/7
f 9/13/7 13/6/7 11/15/7
f 4/8/8 14/6/8 2/5/8
f 6/10/8 14/6/8 4/8/8
f 8/12/8 14/6/8 6/10/8
f 10/14/8 14/6/8 8/12/8
f 12/16/8 14/6/8 10/14/8
f 4/4/2 2/2/1 1/1/1
f 1/1/1 3/3/2 4/4/2
f 6/4/3 4/2/2 3/1/2
f 3/1/2 5/3/3 6/4/3
f 8/4/4 6/2/3 5/1/3
f 5/1/3 7/3/4 8/4/4
f 10/4/5 8/2/4 7/1/4
f 7/1/4 9/3/5 10/4/5
f 12/4/6 10/2/5 9/1/5
f 9/1/5 11/3/6 12/4/6
f 13/19/9 14/17/9 12/18/9
f 12/18/9 11/20/9 13/19/9
f 1/22/10 2/21/10 14/17/10
f 14/17/10 13/19/10 1/22/10

